<?xml version="1.0" encoding="UTF-8"?><svg id="Layer_2" xmlns="http://www.w3.org/2000/svg" width="32" height="32" viewBox="0 0 32 32"><g id="Layer_1-2"><rect width="32" height="32" fill="none" stroke-width="0"/><g id="Layer_1-2"><circle cx="12.1" cy="14.75" r="9.85" fill="#59f" stroke-width="0"/><path d="M20.69,13.99c-.27-2.83-1.9-5.34-4.37-6.75-.13,0-.15,0-.15.17-.35.11-.81-.13-1.14-.24-.83-.35-1.76-.39-2.62-.13-.33.13-1.14.24-.79.96.18.45.68.67,1.13.49.09-.03.17-.08.24-.15.24-.24.46-.59.81-.24.04.11.04.24,0,.35-.12.33-.46.53-.81.48-.44.13-.9,0-1.35.13s-1.11.13-1.11.72-.24.83-.81.96-.68.24-.44.72c.08.24.34.37.58.29.03-.01.06-.03.09-.05.9-.48,1.7-1.68,2.73-.24l.22-.13c.22-.96.46-.35.68,0l.35.37c1.35-1.33,1.03.59,1.49.94-.83-.24-1.86.72-2.71.07-1.38-1.07-2.18-.61-3.54.48-.85.72-1.17,1.87-.83,2.93.33,1.2,1.57,1.31,2.6,1.07.35,0,1.03,0,1.03.13-.22,1.07,1.03,1.79.57,2.97-.28.97.14,2.01,1.03,2.51.79.35,1.46-.59,1.81-1.44v-.46c.92-1.2.81-2.99,1.94-4.19.33-.35,1.46-1.66.57-2.75,2.18-.59,1.35,1.57,1.81,2.51.3-.66.57-1.34.79-2.03.05-.16.12-.31.2-.46ZM8.35,7.61c.27-.29.52-.61.74-.94-.86.32-1.66.78-2.38,1.35l.22.22h1.07M8.11,8.13l.24-.13s.03-.09,0-.13l.13-.13v-.13c-.13.26-.13.13-.13,0l-.24.52ZM6.77,19.28h0v-.37h-.35c-.11,0-.26-.33-.26-.33h-.33c-.07,0-.13-.06-.13-.13-.75-.5-1.26-1.29-1.4-2.18v-.7c0-.24-.33-.17-.33-.28s-.13-.7,0-1.14v-.24l.13-.22c.13-.22,0-.11,0-.22.29-.41.6-.79.94-1.16v-.22h0c.13,0,.13-.35.24-.46s.11-.35.11-.46c.13-.19.2-.41.2-.63-.07-.31-.22-.6-.42-.85-1.1,1.45-1.7,3.21-1.7,5.02-.01,2.52,1.08,4.92,2.99,6.55h0c0-.11.11-.11.11-.22.15-.58.21-1.17.2-1.77Z" fill="#aad400" stroke-width="0"/><path d="M12.1,24.61c-5.44,0-9.85-4.41-9.85-9.85,0-5.44,4.41-9.85,9.85-9.85s9.85,4.41,9.85,9.85h0c0,5.44-4.41,9.85-9.85,9.85ZM12.1,6.17c-4.83,0-8.74,3.91-8.74,8.74s3.91,8.74,8.74,8.74,8.74-3.91,8.74-8.74h0c0-4.83-3.91-8.74-8.74-8.74Z" fill="#212121" isolation="isolate" opacity=".2" stroke-width="0"/><path d="M17.7,28.39c-.39,0-.76-.15-1.03-.44-.28-.27-.43-.64-.42-1.03.91-2.96,1.97-5.88,3.17-8.74h-3.39c-.41.07-.83-.06-1.14-.35-.17-.35-.17-.76,0-1.11l2.86-11.84c.22-.72.87-1.23,1.62-1.27h7.1c.45-.02.87.22,1.09.61.28.48.28,1.07,0,1.55l-3.41,6.55,3.76-.15c.46-.03.9.22,1.11.63.22.48.17,1.03-.13,1.46l-9.83,13.35c-.11.17-.26.31-.44.42-.25.24-.58.36-.92.35h-.02Z" fill="#fbb040" stroke-width="0"/><path d="M26.48,4.25c.74,0,.74.79.5,1.2l-3.34,6.51c-.24.42,0,.74.44.74h3.87c.7,0,.74.74.48,1.14l-9.85,13.44c-.07.08-.15.16-.24.22-.16.17-.38.26-.61.26h0c-.46,0-.83-.37-.83-.83h0c0-.17,3.15-8.45,3.15-8.45.13-.27.02-.6-.25-.73-.09-.05-.2-.07-.3-.05h-3.45c-.35.03-.65-.24-.68-.58,0-.08,0-.15.02-.22l2.99-11.84c.15-.46.57-.77,1.05-.79h7.06M26.48,3h-7.06c-1.01.05-1.88.72-2.18,1.68l-3.06,11.88c-.27,1,.33,2.03,1.34,2.3.17.05.35.07.52.06h2.47c-1.17,2.59-2.13,5.26-2.88,8,.01.55.23,1.07.61,1.46.38.4.91.62,1.46.61.52,0,1.03-.2,1.42-.55.18-.12.35-.27.48-.44l9.74-13.41c.47-.63.54-1.48.17-2.18-.32-.62-.96-1-1.66-.98h-2.64l2.8-5.4c.39-.68.39-1.51,0-2.18-.33-.53-.91-.85-1.53-.85Z" fill="#292929" stroke-width="0"/></g></g></svg>