<svg xmlns="http://www.w3.org/2000/svg" width="13" height="13" viewBox="0 0 13 13"><g id="Layer_2" data-name="Layer 2"><g id="Layer_1-2" data-name="Layer 1"><rect width="13" height="13" fill="none"/><circle cx="4.72" cy="5.93" r="4.51" fill="#59f"/><path d="M8.65,5.58a4,4,0,0,0-2-3.09c-.06,0-.07,0-.07.08-.16.05-.37-.06-.52-.11a1.77,1.77,0,0,0-1.2-.06c-.15.06-.52.11-.36.44A.4.4,0,0,0,5.13,3c.11-.11.21-.27.37-.11a.22.22,0,0,1,0,.16.34.34,0,0,1-.37.22c-.2.06-.41,0-.62.06S4,3.39,4,3.66s-.11.38-.37.44-.31.11-.2.33a.21.21,0,0,0,.31.11c.41-.22.78-.77,1.25-.11l.1-.06c.1-.44.21-.16.31,0l.16.17c.62-.61.47.27.68.43C5.86,4.86,5.39,5.3,5,5c-.63-.49-1-.28-1.62.22A1.25,1.25,0,0,0,3,6.56c.15.55.72.6,1.19.49.16,0,.47,0,.47.06-.1.49.47.82.26,1.36a1,1,0,0,0,.47,1.15c.36.16.67-.27.83-.66,0-.05,0-.16,0-.21.42-.55.37-1.37.89-1.92.15-.16.67-.76.26-1.26,1-.27.62.72.83,1.15a8,8,0,0,0,.36-.93A1.52,1.52,0,0,1,8.65,5.58ZM3,2.66a3.4,3.4,0,0,0,.34-.43,4,4,0,0,0-1.09.62l.1.1h.49a0,0,0,0,0,.05-.05L3,2.84a.05.05,0,0,0,0-.06l.06-.06,0-.06C3,2.78,3,2.72,3,2.66ZM2.28,8h0V7.83l-.06,0c-.05,0-.05,0-.1,0S2,7.68,2,7.68H1.85a.06.06,0,0,1-.06-.06,1.46,1.46,0,0,1-.64-1c0-.11,0-.21,0-.32S1,6.22,1,6.17.94,5.85,1,5.65V5.54s0,0,.06-.1,0-.05,0-.1a4.93,4.93,0,0,1,.43-.53s0,0,0-.1v0c.06,0,.06-.16.11-.21s.05-.16.05-.21A.5.5,0,0,0,1.74,4a1,1,0,0,0-.19-.39A3.83,3.83,0,0,0,.77,5.91a3.92,3.92,0,0,0,1.37,3s0,0,0,0v0c0-.05.05-.05.05-.1A3,3,0,0,0,2.28,8Z" fill="#aad400"/><path d="M4.72,10.44A4.51,4.51,0,1,1,9.23,5.93,4.51,4.51,0,0,1,4.72,10.44ZM4.72,2a4,4,0,1,0,4,4A4,4,0,0,0,4.72,2Z" fill="#212121" opacity="0.2" style="isolation:isolate"/><path d="M7.28,12.17a.63.63,0,0,1-.47-.2.62.62,0,0,1-.19-.47,42.25,42.25,0,0,1,1.45-4l-1.55,0A.61.61,0,0,1,6,7.34.6.6,0,0,1,6,6.83L7.31,1.41A.82.82,0,0,1,8.05.83H11.3a.55.55,0,0,1,.5.28.71.71,0,0,1,0,.71l-1.56,3,1.72-.07a.54.54,0,0,1,.51.29.67.67,0,0,1-.06.67L7.91,11.82a.61.61,0,0,1-.2.19.58.58,0,0,1-.42.16Z" fill="#fbb040"/><path d="M11.3,1.12c.34,0,.34.36.23.55L10,4.65c-.11.19,0,.34.2.34h1.77c.32,0,.34.34.22.52L7.68,11.66a.52.52,0,0,1-.11.1.39.39,0,0,1-.28.12h0a.38.38,0,0,1-.38-.38c0-.08,1.44-3.87,1.44-3.87a.25.25,0,0,0-.25-.36H6.52a.29.29,0,0,1-.3-.37L7.59,1.48a.52.52,0,0,1,.48-.36H11.3m0-.57H8.07a1.1,1.1,0,0,0-1,.77L5.67,6.76a.86.86,0,0,0,.85,1.08H7.65A24.94,24.94,0,0,0,6.33,11.5a1,1,0,0,0,.28.67.91.91,0,0,0,.67.28,1,1,0,0,0,.65-.25A.92.92,0,0,0,8.15,12l4.46-6.14a.94.94,0,0,0,.08-1,.83.83,0,0,0-.76-.45H10.72L12,1.94a1,1,0,0,0,0-1A.82.82,0,0,0,11.3.55Z" fill="#292929"/></g></g></svg>